<?xml version="1.0" encoding="UTF-8" standalone="no" ?>
<!DOCTYPE svg PUBLIC "-//W3C//DTD SVG 1.1//EN" "http://www.w3.org/Graphics/SVG/1.1/DTD/svg11.dtd">
<svg xmlns="http://www.w3.org/2000/svg" xmlns:xlink="http://www.w3.org/1999/xlink" version="1.1" width="300" height="300" viewBox="0 0 300 300" xml:space="preserve">
<desc>Created with Fabric.js 5.3.0</desc>
<defs>
</defs>
<g transform="matrix(1 0 0 1 150 150)"  >
<g style=""   >
		<g transform="matrix(1 0 0 1 0 0)"  >
<path style="stroke: none; stroke-width: 1; stroke-dasharray: none; stroke-linecap: butt; stroke-dashoffset: 0; stroke-linejoin: miter; stroke-miterlimit: 4; fill: rgb(255,245,219); fill-rule: nonzero; opacity: 1;"  transform=" translate(-100, -100)" d="M 195.833 100 C 195.833 152.928 152.928 195.833 100 195.833 C 47.0722 195.833 4.16667 152.928 4.16667 100 C 4.16667 47.0722 47.0722 4.16667 100 4.16667 C 152.928 4.16667 195.833 47.0722 195.833 100 Z" stroke-linecap="round" />
</g>
		<g transform="matrix(1 0 0 1 0.21 0.24)"  >
<path style="stroke: none; stroke-width: 1; stroke-dasharray: none; stroke-linecap: butt; stroke-dashoffset: 0; stroke-linejoin: miter; stroke-miterlimit: 4; fill: rgb(255,204,77); fill-rule: nonzero; opacity: 1;"  transform=" translate(-100.21, -100.24)" d="M 100.439 199.717 C 96.0556 199.717 91.7111 199.478 87.5222 199 L 88.4667 190.722 C 96.7556 191.661 105.639 191.6 114.8 190.5 L 116.361 198.694 L 115.828 198.778 C 110.578 199.406 105.417 199.717 100.439 199.717 Z M 59.9889 191.944 C 51.1649 188.26 42.9613 183.238 35.6667 177.056 L 41.0556 170.694 C 47.6997 176.324 55.1728 180.894 63.2111 184.244 L 59.9889 191.944 Z M 143.494 190.15 L 139.872 182.65 C 147.74 178.84 155.025 173.928 161.506 168.061 L 167.094 174.244 C 160.024 180.642 152.078 185.998 143.494 190.15 Z M 16.9222 155.594 C 11.7924 147.575 7.79538 138.886 5.04445 129.772 L 13.0222 127.35 C 15.5503 135.728 19.2239 143.717 23.9389 151.089 L 16.9222 155.594 Z M 185.283 152.389 L 178.189 148.017 C 182.776 140.582 186.259 132.52 188.528 124.083 L 196.578 126.244 C 194.094 135.458 190.29 144.265 185.283 152.389 Z M 0.483341 101.744 C 0.199625 92.2293 1.2335 82.7207 3.55556 73.4889 L 11.6333 75.5278 C 9.49818 84.0153 8.54843 92.7575 8.81112 101.506 L 0.483341 101.744 Z M 191.65 98.1611 C 191.481 89.426 190.061 80.7602 187.433 72.4278 L 195.378 69.9167 C 198.244 78.9778 199.789 88.4167 199.983 97.9889 L 191.65 98.1611 Z M 21.6333 51.5111 L 14.5056 47.1944 C 19.4621 39.0141 25.6538 31.6493 32.8611 25.3611 L 38.3445 31.6389 C 31.7831 37.362 26.1462 44.0653 21.6333 51.5111 Z M 176.094 48.95 C 171.212 41.6986 165.325 35.1763 158.611 29.5778 L 163.95 23.1778 C 171.271 29.2795 177.688 36.3892 183.011 44.2944 L 176.094 48.95 Z M 60.2667 17.5278 L 56.7722 9.96666 C 65.3718 6.04015 74.4019 3.13515 83.6778 1.31111 L 85.3167 9.48333 C 76.6815 11.1787 68.2744 13.8786 60.2667 17.5278 Z M 136.411 15.8778 C 128.401 12.3959 119.93 10.0869 111.261 9.02222 L 112.283 0.755554 C 121.75 1.91667 130.989 4.43889 139.733 8.23889 L 136.411 15.8778 Z" stroke-linecap="round" />
</g>
</g>
</g>
<g transform="matrix(1 0 0 1 150.84 192.53)"  >
<path style="stroke: none; stroke-width: 1; stroke-dasharray: none; stroke-linecap: butt; stroke-dashoffset: 0; stroke-linejoin: miter; stroke-miterlimit: 4; fill: rgb(102,69,0); fill-rule: nonzero; opacity: 1;"  transform=" translate(-42.26, -14.04)" d="M 0.671102 3.49913 C 0.916455 4.49473 7.04632 27.8569 42.1404 28.0208 C 77.24 28.1847 83.5822 4.88076 83.8369 3.88749 C 84.148 2.68337 83.6094 1.43084 82.5346 0.803593 C 81.4541 0.181874 80.0977 0.358874 79.1993 1.2158 C 79.0932 1.32086 68.2957 11.4761 42.2182 11.3543 C 16.1407 11.2326 5.43293 0.976897 5.3334 0.876431 C 4.80254 0.346169 4.09273 0.0650708 3.38163 0.0617502 C 2.91496 0.059571 2.4422 0.174027 2.01331 0.410915 C 0.921529 1.02805 0.371205 2.28661 0.671102 3.49913 Z" stroke-linecap="round" />
</g>
<g transform="matrix(1 0 0 1 148.4 149.4)"  >
<path style="stroke: none; stroke-width: 1; stroke-dasharray: none; stroke-linecap: butt; stroke-dashoffset: 0; stroke-linejoin: miter; stroke-miterlimit: 4; fill: rgb(102,69,0); fill-rule: nonzero; opacity: 1;"  transform=" translate(-58.9, -19.9)" d="M 6.06111 39.7944 C 5.05 39.7944 4.02222 39.5167 3.10555 38.9389 C 0.51111 37.3055 -0.266669 33.8778 1.36666 31.2778 C 6.45555 23.2055 21.9278 9.39999 44.0889 14.8222 C 47.0667 15.55 48.8889 18.5611 48.1611 21.5389 C 47.4278 24.5167 44.4056 26.3278 41.4444 25.6111 C 21.4222 20.7111 10.8778 37.0333 10.7722 37.2 C 9.71111 38.8778 7.90555 39.7944 6.06111 39.7944 Z M 72.5778 19.0055 C 70.9667 19.0055 69.3778 18.3111 68.2778 16.9722 C 66.3333 14.6 66.6778 11.0944 69.0556 9.14999 C 86.7 -5.31668 106.622 0.472208 114.694 5.5611 C 117.289 7.19443 118.067 10.6278 116.428 13.2222 C 114.8 15.8055 111.383 16.5944 108.783 14.9722 C 108.017 14.5055 91.8278 4.84443 76.0944 17.7444 C 75.0611 18.5944 73.8167 19.0055 72.5778 19.0055 Z" stroke-linecap="round" />
</g>
</svg>